<svg xmlns="http://www.w3.org/2000/svg" viewBox="0 0 512 512" role="img" aria-label="歩行分析アシスト">
  <rect width="512" height="512" rx="96" fill="#0f766e"/>
  <circle cx="256" cy="116" r="48" fill="#ffffff"/>
  <path d="M236 174h40c18 0 32 14 32 32v88c0 18-14 32-32 32h-40c-18 0-32-14-32-32v-88c0-18 14-32 32-32z" fill="#ffffff"/>
  <path d="M218 304l-52 100c-8 15-26 21-41 13s-21-26-13-41l58-110c8-15 27-20 42-12 14 8 20 27 6 50z" fill="#ffffff"/>
  <path d="M294 304l70 88c11 14 9 33-5 44s-33 9-44-5l-76-96c-11-14-8-34 6-44 15-11 36-7 49 13z" fill="#ffffff"/>
  <path d="M206 218l-76 38c-15 8-33 2-41-13s-2-33 13-41l78-39c17-8 36-1 43 16 6 15 0 31-17 39z" fill="#b7f0e5"/>
  <path d="M306 219l84 28c16 5 25 22 20 39s-22 25-39 20l-84-28c-17-6-25-24-18-40 6-15 21-24 37-19z" fill="#b7f0e5"/>
  <path d="M112 418h288" stroke="#b7f0e5" stroke-width="28" stroke-linecap="round"/>
</svg>
